<?xml version="1.0" standalone="no"?>
<!DOCTYPE svg PUBLIC "-//W3C//DTD SVG 20010904//EN"
 "http://www.w3.org/TR/2001/REC-SVG-20010904/DTD/svg10.dtd">
<svg version="1.0" xmlns="http://www.w3.org/2000/svg"
 width="512.000000pt" height="512.000000pt" viewBox="0 0 512.000000 512.000000"
 preserveAspectRatio="xMidYMid meet">

<g transform="translate(0.000000,512.000000) scale(0.100000,-0.100000)"
fill="#000000" stroke="none">
<path d="M1332 4050 c-242 -64 -438 -261 -503 -507 -17 -64 -21 -111 -22 -268
-2 -174 0 -193 18 -224 27 -46 64 -72 116 -82 24 -4 213 -8 419 -8 206 0 395
4 419 8 52 10 89 36 115 81 15 25 20 58 24 157 4 105 8 129 26 155 30 44 67
69 117 79 57 11 941 11 998 0 50 -10 87 -35 117 -79 18 -26 22 -50 26 -155 4
-99 9 -132 24 -157 26 -45 63 -71 115 -81 57 -11 781 -11 838 0 52 10 89 36
116 82 18 31 20 50 18 224 -1 157 -5 204 -22 268 -66 248 -262 445 -507 507
-75 19 -114 20 -1228 19 -1100 0 -1154 -1 -1224 -19z m2445 -155 c173 -55 310
-194 361 -367 20 -66 22 -93 20 -244 l-3 -169 -395 0 -395 0 -7 109 c-10 152
-27 197 -102 272 -103 102 -79 99 -696 99 -617 0 -593 3 -696 -99 -75 -75 -92
-120 -102 -272 l-7 -109 -395 0 -395 0 -3 169 c-2 151 0 178 20 244 50 170
179 303 352 364 l81 28 1142 0 1142 0 78 -25z"/>
<path d="M1064 2689 c-18 -20 -19 -47 -22 -608 -2 -348 1 -619 7 -668 24 -200
159 -338 353 -363 96 -12 2220 -12 2316 0 139 18 257 102 318 225 l29 60 3
669 c2 615 1 670 -14 687 -24 27 -85 25 -110 -2 -18 -20 -19 -50 -24 -673 l-5
-653 -30 -49 c-38 -61 -102 -101 -180 -114 -80 -13 -2210 -13 -2290 0 -78 13
-142 53 -180 114 l-30 49 -5 653 c-5 623 -6 653 -24 673 -26 29 -86 29 -112 0z"/>
<path d="M1707 2692 c-24 -27 -22 -85 4 -108 19 -17 38 -19 184 -19 146 0 165
2 184 19 27 25 29 86 3 109 -16 14 -44 17 -189 17 -152 0 -172 -2 -186 -18z"/>
<path d="M2370 2688 c-37 -40 -21 -97 34 -118 35 -13 277 -13 312 0 55 21 71
78 34 118 -20 21 -29 22 -190 22 -161 0 -170 -1 -190 -22z"/>
<path d="M3037 2692 c-24 -27 -22 -85 4 -108 19 -17 38 -19 184 -19 146 0 165
2 184 19 27 25 29 86 3 109 -16 14 -44 17 -189 17 -152 0 -172 -2 -186 -18z"/>
<path d="M1707 2212 c-24 -27 -22 -85 4 -108 19 -17 38 -19 184 -19 146 0 165
2 184 19 27 25 29 86 3 109 -16 14 -44 17 -189 17 -152 0 -172 -2 -186 -18z"/>
<path d="M2370 2208 c-37 -40 -21 -97 34 -118 35 -13 277 -13 312 0 55 21 71
78 34 118 -20 21 -29 22 -190 22 -161 0 -170 -1 -190 -22z"/>
<path d="M3037 2212 c-24 -27 -22 -85 4 -108 19 -17 38 -19 184 -19 146 0 165
2 184 19 27 25 29 86 3 109 -16 14 -44 17 -189 17 -152 0 -172 -2 -186 -18z"/>
<path d="M1707 1732 c-24 -27 -22 -85 4 -108 19 -17 38 -19 184 -19 146 0 165
2 184 19 27 25 29 86 3 109 -16 14 -44 17 -189 17 -152 0 -172 -2 -186 -18z"/>
<path d="M2370 1728 c-37 -40 -21 -97 34 -118 35 -13 277 -13 312 0 55 21 71
78 34 118 -20 21 -29 22 -190 22 -161 0 -170 -1 -190 -22z"/>
<path d="M3037 1732 c-24 -27 -22 -85 4 -108 19 -17 38 -19 184 -19 146 0 165
2 184 19 27 25 29 86 3 109 -16 14 -44 17 -189 17 -152 0 -172 -2 -186 -18z"/>
</g>
</svg>
