<svg width="63" height="99" viewBox="0 0 63 99" fill="none" xmlns="http://www.w3.org/2000/svg">
<path fill-rule="evenodd" clip-rule="evenodd" d="M58.9724 0.319597C58.8409 0.504846 58.4387 0.656414 58.0783 0.656414C57.5196 0.656414 52.0446 3.93533 51.4433 4.62985C51.3307 4.7602 51.0461 4.86663 50.8114 4.86663C50.5767 4.86663 49.9676 5.13373 49.4579 5.4601C48.9483 5.78614 47.7483 6.39241 46.7912 6.80737C45.5851 7.32978 45.0859 7.74204 45.1647 8.1506C45.227 8.47462 45.0967 8.74003 44.8747 8.74003C44.6527 8.74003 44.471 8.48742 44.471 8.17856C44.471 7.87003 44.3828 7.69421 44.2749 7.78819C44.167 7.88182 44.1872 8.4305 44.3194 9.00679C44.5414 9.97346 44.6543 10.0388 45.7723 9.84681C47.8021 9.49854 50.5705 8.28095 51.161 7.47697C51.3311 7.24557 51.7101 7.05594 52.0032 7.05594C52.2967 7.05594 52.8099 6.81782 53.1444 6.5268C53.4785 6.23546 53.7519 6.08995 53.7519 6.20346C53.7519 6.31697 54.2306 6.02293 54.8153 5.55037C55.4 5.07782 56.1054 4.76693 56.3823 4.85922C56.6591 4.95185 56.7794 4.87741 56.6495 4.69452C56.5195 4.51129 56.5806 4.36141 56.7848 4.36141C57.4851 4.36141 57.8873 6.21424 57.7206 8.67166C57.6108 10.2928 57.7129 11.2958 58.0207 11.6188C58.2771 11.8879 58.3726 12.1082 58.2326 12.1082C58.093 12.1082 58.1862 12.4464 58.4403 12.8596C58.694 13.2729 58.955 14.1264 59.02 14.7566C59.1835 16.3437 60.1642 17.2541 61.1395 16.7236C61.5428 16.5043 61.8727 16.1416 61.8727 15.9173C61.8727 15.6933 62.1774 15.3602 62.5494 15.1773C63.0916 14.9109 63.1299 14.76 62.7428 14.4194C62.4771 14.1857 62.2594 13.7125 62.2594 13.3682C62.2594 13.024 62.0919 12.8324 61.887 12.9425C61.6817 13.053 61.5216 12.7226 61.5293 12.2045C61.5374 11.6885 61.4322 9.90205 61.2961 8.23481C61.1596 6.56756 61.0362 5.05188 61.0219 4.86663C61.0072 4.68138 61.1082 3.94173 61.2466 3.2233C61.4001 2.42336 61.327 1.7376 61.0579 1.45501C60.8158 1.20105 60.7385 0.993231 60.8862 0.993231C61.0339 0.993231 60.8936 0.76588 60.5745 0.488005C59.902 -0.0973834 59.3123 -0.159358 58.9724 0.319597ZM54.8153 9.33014C54.4433 9.40323 54.1386 9.60363 54.1386 9.77507C54.1386 9.94685 54.0083 10.0553 53.8486 10.0159C53.3973 9.90475 51.8184 10.8819 51.8184 11.2722C51.8184 11.6535 50.8818 12.4181 49.3303 13.3036C48.7847 13.6148 48.338 14.0843 48.338 14.3467C48.338 14.6091 48.077 14.9112 47.758 15.0176C47.4389 15.1244 47.1779 15.4228 47.1779 15.6808C47.1779 15.9388 46.995 16.15 46.7711 16.15C46.5472 16.15 46.1822 16.6047 45.9598 17.1605C45.7375 17.7162 45.4381 18.1709 45.2947 18.1709C45.1508 18.1709 44.7138 18.7395 44.3229 19.434C43.9315 20.1288 43.4571 20.9601 43.268 21.2818C43.0789 21.6034 42.9242 22.0777 42.9242 22.3353C42.9242 22.593 42.6593 22.9955 42.3352 23.2296C41.9764 23.4893 41.8414 23.9157 41.9903 24.3232C42.1624 24.7961 42.0962 24.9177 41.7641 24.7389C41.4319 24.56 41.3658 24.6816 41.5378 25.1545C41.6809 25.5469 41.5599 25.9827 41.2443 26.2111C40.9172 26.4475 40.7408 27.1252 40.7938 27.9427C40.8418 28.6813 40.7118 29.2859 40.5053 29.2859C40.2985 29.2859 40.2072 29.747 40.3023 30.3108C40.4295 31.0673 40.3398 31.2906 39.9593 31.1633C39.6759 31.0687 39.4438 31.1758 39.4438 31.4014C39.4442 31.6756 38.7988 31.7975 37.5041 31.7689C36.4372 31.745 35.4585 31.875 35.3289 32.0576C35.1878 32.2563 34.9604 32.2064 34.7609 31.9323C34.4979 31.5705 34.4271 31.5917 34.4225 32.033C34.419 32.3829 34.1642 32.5476 33.7399 32.4752C31.0845 32.0205 30.1629 32.039 30.1629 32.548C30.1629 32.9619 30.0473 32.9899 29.6173 32.679C29.3172 32.4621 28.9823 32.4102 28.8733 32.5641C28.7642 32.7177 28.1447 32.8787 27.4966 32.9218C26.8485 32.965 25.8899 33.1421 25.3663 33.3156C24.6961 33.5372 24.3488 33.5109 24.1949 33.2267C24.0275 32.9181 23.9223 32.9225 23.7494 33.2455C23.6249 33.4783 23.3639 33.583 23.1694 33.4783C22.9749 33.3735 22.6009 33.4035 22.3391 33.5446C22.077 33.6857 21.5982 33.8424 21.2757 33.8925C18.8692 34.2674 18.1751 34.4547 18.1751 34.7279C18.1751 34.9003 17.9578 34.999 17.6917 34.9475C16.969 34.807 11.6274 37.3059 9.88803 38.5982C9.05236 39.219 8.13472 39.7272 7.84971 39.7272C7.56433 39.7272 7.13276 40.1062 6.89029 40.5693C6.64822 41.0324 6.2066 41.4113 5.90884 41.4113C5.61147 41.4113 5.47573 41.5629 5.60721 41.7481C5.73869 41.9334 5.57473 42.085 5.24332 42.085C4.91191 42.085 4.64045 42.2143 4.64045 42.3726C4.64045 42.5309 4.20502 43.0695 3.67291 43.5696C2.53755 44.6367 1.54682 46.213 1.54682 46.952C1.54682 47.2393 1.37048 47.474 1.1547 47.474C0.926541 47.474 0.85268 47.9203 0.977972 48.5397C1.09669 49.1271 1.01239 49.7031 0.790037 49.8227C0.300856 50.0861 0.158549 52.3899 0.563428 53.4946C0.765288 54.046 0.723135 54.2232 0.42808 54.0642C0.170921 53.9258 0 54.0962 0 54.4913C0 54.853 0.261025 55.236 0.580056 55.3428C0.899087 55.4492 1.16011 55.7112 1.16011 55.9251C1.16011 56.2165 1.024 56.2151 0.615637 55.9204C0.159713 55.5907 0.0912595 55.7614 0.192963 56.9736C0.259863 57.7695 0.350742 58.4964 0.395213 58.589C0.439684 58.6816 0.447806 59.0606 0.413776 59.4311C0.361571 59.9999 0.418797 60.0262 0.779592 59.5995C1.111 59.2077 1.15316 59.3327 0.96754 60.1569C0.83606 60.7413 0.900248 61.3122 1.11023 61.4254C1.3206 61.5385 1.61024 62.4513 1.75409 63.454C1.94977 64.8164 2.15162 65.2314 2.55456 65.0967C2.85117 64.9976 3.09363 65.0842 3.09363 65.2893C3.09363 65.4944 2.78891 65.6669 2.4169 65.673C1.77227 65.6831 1.77227 65.7049 2.4169 66.131C2.78891 66.3772 3.09363 66.7521 3.09363 66.9646C3.09363 67.1768 3.50276 67.6605 4.00316 68.0394C4.63774 68.5201 4.85778 68.9758 4.7321 69.549C4.6331 70.0004 4.39798 70.2867 4.20966 70.1853C3.6501 69.8845 3.82064 70.5982 4.4096 71.024C4.82608 71.3251 4.99854 71.3153 5.15245 70.9812C5.29321 70.675 5.36204 70.701 5.38331 71.0681C5.39993 71.3554 5.24719 71.7353 5.04339 71.9128C4.80673 72.119 4.80673 72.4177 5.04339 72.738C5.35508 73.1611 5.46838 73.1668 5.75841 72.7747C6.01364 72.4295 6.17218 72.5821 6.36863 73.3622C6.5148 73.9415 6.9077 74.5488 7.2422 74.7118C7.64205 74.9065 7.77199 75.2679 7.62156 75.768C7.40037 76.5043 7.9081 77.2672 8.70085 77.3905C8.91353 77.4238 9.09606 77.5646 9.1065 77.7034C9.16954 78.5417 9.80528 79.4717 10.315 79.4717C10.6943 79.4717 10.827 79.6613 10.68 79.9944C10.5536 80.2821 10.5783 80.4528 10.7353 80.3744C10.8927 80.2959 11.3691 80.5384 11.7945 80.9139C12.2199 81.2892 12.3525 81.4892 12.0888 81.3585C11.7748 81.2026 11.6843 81.2892 11.8258 81.6105C11.9441 81.8796 12.4209 82.2009 12.8846 82.3242C13.4275 82.4684 13.5501 82.6118 13.2284 82.727C12.8467 82.8631 12.8343 83.016 13.1758 83.3741C13.4213 83.6321 13.7555 83.7712 13.9179 83.6836C14.3421 83.4556 16.2416 86.0639 16.2416 86.8746C16.2416 87.2488 16.4156 87.5553 16.6283 87.5553C16.841 87.5553 17.015 87.7564 17.015 88.0019C17.015 88.6378 18.7424 89.9693 19.1705 89.6635C19.3673 89.523 19.404 89.5415 19.2521 89.7045C18.7397 90.2552 19.7478 91.2724 22.5572 93.039C24.0944 94.006 25.695 94.9788 26.1141 95.2014C29.3764 96.933 35.0196 98.6188 38.5014 98.902C40.8344 99.092 40.8862 99.0778 41.1411 98.1937C41.2842 97.6979 41.3124 97.1671 41.2037 97.0142C41.0108 96.742 38.7528 96.1805 38.194 96.2654C38.0382 96.2893 37.1681 96.096 36.2605 95.836C35.3525 95.5763 34.0567 95.2641 33.3799 95.1428C32.7036 95.0212 31.9425 94.7043 31.6893 94.4385C31.4356 94.1724 31.0295 93.9548 30.7867 93.9548C30.1324 93.9548 27.4993 92.6702 26.5461 91.8861C26.0894 91.5106 25.2475 90.9895 24.6756 90.7281C24.1033 90.4671 23.3318 89.8059 22.961 89.2596C22.5901 88.713 22.145 88.3421 21.9714 88.4354C21.7974 88.5291 21.6554 88.3782 21.6554 88.1003C21.6554 87.8224 21.4544 87.4869 21.2088 87.3549C20.906 87.1915 20.8677 87.2663 21.0897 87.5873C21.365 87.9851 21.3163 87.9895 20.7857 87.6149C20.4389 87.3697 20.254 86.944 20.3751 86.6685C20.5174 86.3461 20.3024 86.1009 19.7722 85.9803C19.319 85.8769 18.9474 85.5452 18.9458 85.2424C18.9446 84.9399 18.578 84.2377 18.1318 83.6819C17.6573 83.0915 17.4272 82.9497 17.5776 83.341C17.8344 84.0093 17.8333 84.0093 17.0869 83.341C16.5111 82.8254 16.4392 82.5603 16.7737 82.1874C17.1267 81.794 17.0734 81.7472 16.4887 81.9385C15.9384 82.1184 15.8236 82.0497 16.0007 81.6472C16.1364 81.3393 16.071 81.2076 15.8433 81.3306C15.629 81.4458 15.228 81.0722 14.9519 80.5003C14.6758 79.9284 14.332 79.563 14.1882 79.6883C14.0443 79.8136 13.815 79.4289 13.6781 78.8334C13.5114 78.1079 13.2555 77.8088 12.902 77.927C12.6054 78.0261 12.3745 77.8886 12.3745 77.6125C12.3745 77.3427 12.0717 76.8139 11.7021 76.4376C11.332 76.0614 11.0276 75.4915 11.0253 75.1715C11.023 74.8516 10.8181 74.5892 10.5698 74.5888C10.3219 74.5882 9.97388 74.4497 9.79638 74.2813C9.60922 74.1032 9.67689 74.0762 9.95764 74.217C10.6251 74.5515 10.5675 73.9199 9.88571 73.4268C9.5806 73.2062 9.22173 72.5939 9.08871 72.0664C8.95568 71.539 8.57864 71.0179 8.25033 70.9081C7.88683 70.7865 7.74879 70.4938 7.89651 70.1577C8.03031 69.8545 7.86441 69.3419 7.52798 69.0182C7.19193 68.6945 6.86362 68.0724 6.79904 67.6356C6.64397 66.5935 6.13932 64.908 5.85471 64.4833C5.61263 64.1222 5.47226 63.6709 5.14588 62.2098C5.03257 61.7002 4.76652 61.2835 4.55538 61.2835C4.34385 61.2835 4.26458 61.071 4.37904 60.8113C4.49351 60.5516 4.47803 60.2441 4.34462 60.1279C3.95405 59.7874 3.82683 58.9477 3.65242 55.5577C3.47802 52.1662 3.8423 49.6576 4.79746 47.666C5.11803 46.9981 5.38176 46.373 5.38331 46.277C5.38485 46.181 5.65361 45.8701 5.97999 45.5855C6.30676 45.3009 6.57397 44.8516 6.57397 44.5872C6.57397 44.3224 6.77699 44.1059 7.02525 44.1059C7.27313 44.1059 7.36168 44.0062 7.2217 43.8842C6.922 43.6232 7.66641 42.7586 8.19078 42.7586C8.39032 42.7586 8.42204 42.9482 8.26156 43.1796C8.10107 43.4113 8.68731 42.9944 9.56436 42.2534C11.1908 40.8788 12.8931 39.7397 13.4295 39.6663C13.5934 39.644 13.919 39.3982 14.1526 39.1196C14.3862 38.8414 14.7779 38.7218 15.0227 38.8535C15.2679 38.9856 15.4682 38.9519 15.4682 38.7788C15.4682 38.1166 23.9849 35.8969 27.9877 35.516C29.0245 35.417 29.9816 35.2802 30.1146 35.2119C30.424 35.0525 35.6348 34.6066 37.8514 34.55C39.1762 34.516 39.6407 34.6538 39.9783 35.1802C40.2161 35.5507 40.5846 35.9677 40.7973 36.1064C41.0429 36.2668 40.9907 36.4675 40.6554 36.6561C39.8174 37.1263 39.7273 39.0664 40.5073 39.8418C41.1515 40.4831 41.1515 40.5049 40.5073 40.3002C39.7196 40.0499 39.5289 40.9947 40.3139 41.2577C40.638 41.3665 40.7888 42.1671 40.7718 43.6889C40.742 46.3491 41.51 48.3481 42.6628 48.6108C43.1071 48.7118 43.3538 48.8964 43.2111 49.0207C42.8577 49.3285 43.6535 50.5687 44.063 50.3484C44.2428 50.2518 44.4934 50.4077 44.6203 50.695C44.7467 50.9827 45.9072 51.6354 47.1984 52.146C49.3226 52.986 49.7855 53.0494 52.0516 52.8119C55.1189 52.4903 55.2175 52.4387 56.0833 50.7146C56.9078 49.0726 57.0613 47.8496 56.7017 45.7899C56.5559 44.9563 56.3873 43.8128 56.3262 43.2487C56.2655 42.6845 56.1038 42.0654 55.9673 41.8731C55.8308 41.6804 55.617 41.0055 55.4921 40.3726C55.0377 38.0698 54.0071 35.6642 53.663 36.1034C53.434 36.3954 53.3644 36.3166 53.4387 35.8508C53.5446 35.189 51.6053 32.6076 51.1049 32.7447C50.8323 32.8194 48.5627 32.1158 47.4857 31.6224C47.1234 31.4563 46.7448 31.4368 46.6439 31.5786C46.4184 31.8966 44.792 31.8561 44.1616 31.5166C43.9064 31.3796 43.6972 30.7834 43.6968 30.1923C43.6956 28.8831 45.9165 22.5826 46.6331 21.8634C46.9165 21.5788 47.5159 20.6226 47.9649 19.7385C48.4138 18.8543 49.014 18.053 49.2982 17.9581C49.5825 17.8631 49.9212 17.4175 50.0507 16.9678C50.1803 16.5178 50.4672 16.15 50.6884 16.15C50.9096 16.15 50.9665 15.9749 50.8149 15.761C50.6617 15.5454 50.707 15.4629 50.9162 15.5754C51.3168 15.791 52.5918 14.6876 52.5918 14.1254C52.5918 13.9422 52.8095 13.7862 53.0752 13.7785C54.0048 13.7522 55.9588 11.9314 56.1916 10.8744C56.4492 9.70333 55.9229 9.11255 54.8153 9.33014ZM47.6555 34.8993C47.9246 35.0482 48.2766 35.1721 48.4382 35.1751C48.5994 35.1778 49.0732 35.6696 49.4908 36.2678C49.9088 36.866 50.4726 37.3075 50.7445 37.2493C51.016 37.191 51.108 37.2068 50.9483 37.2843C50.4278 37.5379 50.6424 38.2631 51.4185 38.8748C51.8369 39.2045 52.1571 39.7205 52.1308 40.0216C52.1042 40.3227 52.1223 40.8724 52.171 41.2429L52.2596 41.9165L52.6243 41.2429C52.9294 40.6794 52.9638 40.7286 52.8335 41.544C52.7476 42.0802 52.8211 42.9546 52.9967 43.4871C53.1904 44.0762 53.1738 44.3794 52.9537 44.2608C52.4193 43.9732 52.5141 44.6606 53.0802 45.1766C53.6123 45.6616 53.7333 47.2628 53.2685 47.6694C52.7523 48.1211 52.9615 48.5623 53.5918 48.3514C53.9294 48.2386 53.7121 48.6051 53.1084 49.1655C52.168 50.0392 51.765 50.174 50.2801 50.1096C48.9618 50.0527 48.2959 49.8095 47.4896 49.0911C46.9072 48.5724 46.2699 48.1477 46.0739 48.1477C45.8774 48.1477 45.7413 47.8826 45.7707 47.5582C45.8005 47.2339 45.6133 47.0048 45.355 47.049C45.0654 47.0985 44.9795 46.9159 45.1307 46.5727C45.2947 46.2009 45.2266 46.0965 44.9261 46.2585C44.6284 46.4188 44.4988 46.2379 44.5429 45.7243C44.5797 45.2972 44.4084 44.4174 44.1616 43.769C43.5924 42.2726 43.2749 36.1482 43.7146 35.1415C43.9981 34.4914 44.2746 34.3984 45.6064 34.5045C46.4645 34.5729 47.3864 34.7508 47.6555 34.8993ZM5.60721 73.7458C5.47573 73.931 5.55269 74.0826 5.77775 74.0826C6.00281 74.0826 6.18727 73.931 6.18727 73.7458C6.18727 73.5605 6.1107 73.409 6.01673 73.409C5.92276 73.409 5.73869 73.5605 5.60721 73.7458ZM14.3081 84.8608C14.3081 85.046 14.4925 85.1976 14.7176 85.1976C14.9426 85.1976 15.0196 85.046 14.8881 84.8608C14.7566 84.6755 14.5726 84.5239 14.4786 84.5239C14.3846 84.5239 14.3081 84.6755 14.3081 84.8608Z" fill="black"/>
</svg>
