<svg width="18" height="53" viewBox="0 0 18 53" fill="none" xmlns="http://www.w3.org/2000/svg">
<path fill-rule="evenodd" clip-rule="evenodd" d="M10.7588 0.398684C10.3463 0.912745 10.3605 0.970892 11.1348 1.91956C12.1378 3.1492 12.7775 4.10789 12.9742 4.67759C13.0577 4.91871 13.2256 5.11621 13.3474 5.11621C13.469 5.11621 13.5687 5.2483 13.5687 5.40971C13.5687 5.57112 13.7309 5.88241 13.9289 6.10122C14.1269 6.32003 14.3467 6.81805 14.4174 7.2078C14.4881 7.59779 14.6858 8.08528 14.8568 8.29131C15.1044 8.58957 15.1034 8.76903 14.851 9.17306C14.6768 9.45202 14.646 9.61117 14.7826 9.52671C14.9355 9.43221 14.9999 9.75955 14.9503 10.3776C14.9044 10.9503 14.9803 11.3822 15.1272 11.3822C15.2966 11.3822 15.3009 11.489 15.1395 11.6955C14.8014 12.1276 14.5658 13.1695 14.8452 12.9968C14.9703 12.9196 15.0726 13.0229 15.0726 13.2264C15.0726 13.4297 14.959 13.6339 14.8202 13.6803C14.6813 13.7267 14.5284 14.228 14.4803 14.7944C14.4324 15.3608 14.2953 15.9809 14.176 16.1724C14.0567 16.3636 13.9244 16.7434 13.882 17.0163C13.7331 17.9748 13.3619 17.965 12.8622 16.9887C12.0747 15.4511 8.74568 13.17 8.08449 13.7154C7.81581 13.937 7.69751 13.94 7.62582 13.7267C7.50953 13.3813 5.49113 13.5214 4.70262 13.9292C3.94093 14.3234 2.29924 15.9614 2.29423 16.3323C2.29197 16.5048 2.19247 16.6456 2.07342 16.6456C1.95436 16.6456 1.68167 17.1251 1.46787 17.7108C1.0671 18.8081 1.04279 20.0573 1.41073 20.6528C1.56462 20.9017 1.50948 20.9491 1.2032 20.8315C0.973862 20.7436 0.786133 20.7589 0.786133 20.8656C0.786133 21.5033 1.91777 24.3565 2.30601 24.6976C2.56116 24.9217 2.71831 25.1568 2.65515 25.2197C2.46767 25.4075 3.26621 25.4588 6.1478 25.4445C8.23112 25.4343 8.97827 25.3403 9.3011 25.048C9.53394 24.8372 9.79987 24.7405 9.8921 24.8325C9.98434 24.9247 10.0598 24.8721 10.0598 24.7157C10.0598 24.5593 10.228 24.4956 10.4337 24.5746C10.647 24.6565 10.8736 24.5455 10.9618 24.3162C11.0465 24.0951 11.3295 23.9141 11.5904 23.9141C11.8513 23.9141 12.0649 23.7397 12.0649 23.5264C12.0649 23.1933 12.1531 23.2021 12.6925 23.5891C13.099 23.8808 13.28 24.2084 13.2066 24.5187C13.1441 24.7821 13.2118 25.2195 13.3569 25.4904C13.5439 25.8401 13.5402 26.0326 13.3439 26.1539C13.1507 26.2734 13.178 26.4709 13.4354 26.8113C13.861 27.3737 13.9339 28.3254 13.5687 28.551C13.1715 28.7966 13.2777 29.1773 13.6988 29.0157C14.0126 28.8953 14.0372 28.9808 13.8382 29.5044C13.6752 29.9327 13.69 30.3862 13.8835 30.899C14.1289 31.5491 14.0998 31.7394 13.6815 32.2158C13.4128 32.5221 13.3339 32.6903 13.5061 32.5895C13.6783 32.4888 13.8194 32.5259 13.8194 32.6717C13.8194 32.8176 13.7306 32.9372 13.6221 32.9372C13.4394 32.9372 13.3223 33.4199 13.2429 34.5037C13.2251 34.7448 13.1366 34.9423 13.0464 34.9423C12.9048 34.9423 12.6213 36.3882 12.4972 37.7437C12.4762 37.9748 12.3702 38.1091 12.2619 38.0422C12.1536 37.975 12.0649 38.1527 12.0649 38.4364C12.0649 38.7202 11.9401 38.9525 11.7874 38.9525C11.6348 38.9525 11.5784 39.1309 11.6621 39.3488C11.7458 39.5668 11.6536 39.9746 11.4571 40.2548C11.2608 40.5353 11.1531 40.9027 11.218 41.0716C11.2826 41.2403 11.1626 41.5223 10.9513 41.6977C10.7398 41.8734 10.6212 42.1055 10.6881 42.2136C10.8691 42.5066 10.0295 45.0503 9.64698 45.3686C9.46476 45.52 9.38907 45.7175 9.4788 45.8072C9.56853 45.897 9.5387 45.9681 9.41238 45.9654C9.28581 45.9626 8.8126 45.1731 8.3607 44.2109C7.90854 43.2487 7.42932 42.4614 7.29548 42.4614C7.16164 42.4614 7.0486 42.2639 7.04409 42.0228C7.03707 41.6311 6.99572 41.6376 6.65836 42.0842C6.33428 42.5131 6.24681 42.5309 6.04529 42.2095C5.88914 41.9604 5.84954 42.2893 5.92749 43.1908C5.99191 43.9367 6.21498 44.7352 6.42301 44.9651C6.63129 45.1952 6.80147 45.5155 6.80147 45.6769C6.80147 45.8383 6.99872 46.1879 7.24009 46.4536C8.15843 47.4655 8.32636 47.7387 8.17798 47.9788C8.09402 48.1149 8.11632 48.2264 8.22786 48.2266C8.33939 48.2269 8.74768 48.7289 9.13542 49.3425C9.52291 49.9561 10.0603 50.5278 10.3295 50.6132C10.5987 50.6987 10.7606 50.8631 10.6891 50.9787C10.4448 51.3742 10.844 51.9577 11.2518 51.801C11.5411 51.6902 11.609 51.7566 11.499 52.0436C11.3827 52.3466 11.4912 52.4233 11.9631 52.3715C12.3017 52.3344 12.6624 52.4527 12.7642 52.6346C13.0436 53.1339 13.4828 52.7219 13.7647 51.696C13.9449 51.0401 13.9352 50.6972 13.7301 50.4904C13.5141 50.2729 13.5622 50.2468 13.9256 50.3852C14.3126 50.5328 14.375 50.4837 14.2417 50.1365C14.1429 49.8791 14.176 49.7661 14.3234 49.857C14.4598 49.9413 14.5786 49.919 14.5873 49.8074C14.6933 48.4622 14.8101 47.9156 15.0543 47.6214C15.2197 47.4221 15.2773 46.9644 15.1884 46.5584C15.0863 46.0927 15.1119 45.9579 15.2623 46.1702C15.5696 46.6038 16.0541 46.0381 16.2202 45.0523C16.2864 44.6613 16.3922 44.1944 16.4553 44.0149C16.5187 43.8354 16.4689 43.7515 16.3443 43.8284C16.2197 43.9054 16.0801 43.8643 16.0338 43.7369C15.8886 43.3367 14.5946 43.7472 14.4372 44.2435C14.3545 44.5042 14.1853 44.7172 14.061 44.7172C13.9367 44.7172 13.8931 44.8683 13.964 45.0531C14.0349 45.2378 13.9186 45.5335 13.7056 45.7102C13.4923 45.8872 13.3181 46.1752 13.3181 46.3501C13.3181 46.5253 13.1509 46.7328 12.9464 46.8113C12.6744 46.9156 12.6181 47.1692 12.7356 47.7575C12.8752 48.455 12.8379 48.5384 12.4526 48.3906C12.1316 48.2675 12.0471 48.3194 12.1466 48.5785C12.222 48.7755 12.1303 48.9956 11.9428 49.0675C11.5571 49.2154 9.99662 47.5286 10.2059 47.19C10.3971 46.8807 11.313 46.9206 11.313 47.2384C11.313 47.3842 11.4313 47.4306 11.5759 47.3414C11.7554 47.2304 11.7458 47.0672 11.5451 46.8253C11.3067 46.5381 11.3631 46.4702 11.8463 46.4641C12.3885 46.4571 12.4002 46.4328 11.9812 46.1892C11.5406 45.933 11.5433 45.9012 12.0438 45.435C12.5268 44.9851 12.7038 44.262 12.6065 43.1372C12.5589 42.587 13.2469 41.2057 13.7953 40.7511C14.0154 40.5686 14.0662 40.4832 13.9083 40.5616C13.7504 40.6401 13.5529 40.5263 13.4697 40.309C13.2532 39.7445 13.274 39.7032 13.694 39.8643C13.957 39.9653 14.07 39.8453 14.07 39.4658C14.07 39.1673 14.1665 38.9826 14.2846 39.0555C14.4024 39.1284 14.45 38.8813 14.3901 38.5064C14.3131 38.0244 14.3515 37.9241 14.5204 38.1647C14.8996 38.7046 15.0741 38.1111 14.7347 37.4346C14.4658 36.8983 14.4911 36.7902 14.938 36.5657C15.2648 36.4015 15.4776 36.009 15.529 35.4746C15.5816 34.929 15.5164 34.6974 15.341 34.8059C14.9086 35.0731 15.0317 34.7144 15.5711 34.1355C15.8455 33.841 15.9992 33.5357 15.913 33.4567C15.8265 33.3778 15.7052 33.4547 15.6435 33.6279C15.5816 33.8011 15.4124 33.8695 15.2678 33.7801C15.1087 33.6818 15.2412 33.4244 15.6024 33.1301C15.9313 32.8622 16.0313 32.7309 15.8245 32.8382C15.5255 32.9936 15.5062 32.9595 15.7307 32.672C16.0839 32.2193 15.9716 26.6664 15.6044 26.4393C15.451 26.3446 15.4372 26.1406 15.5696 25.926C15.6987 25.7172 15.6884 25.3816 15.5448 25.113C15.4102 24.8616 15.3668 24.5475 15.4485 24.4154C15.5302 24.2833 15.46 23.9192 15.2926 23.6066C14.9966 23.0532 14.8099 19.6159 15.0851 19.7864C15.1608 19.8332 15.3666 19.6415 15.5423 19.3603C15.752 19.0239 15.7631 18.9099 15.5738 19.0267C15.228 19.2405 15.8197 18.1199 16.2004 17.8399C16.3676 17.7173 16.3676 17.6532 16.2004 17.6482C16.0536 17.6437 16.0636 17.5642 16.2245 17.4564C16.612 17.1965 16.9022 15.8937 16.5724 15.8937C16.3887 15.8937 16.3874 15.7458 16.5676 15.409C16.9125 14.7643 16.8972 14.3169 16.5375 14.539C16.3568 14.6508 16.3165 14.6077 16.4298 14.4244C16.5295 14.263 16.7035 14.1881 16.8163 14.2578C17.2559 14.5295 17.3571 11.0298 16.9905 8.2492C16.8995 7.55994 16.8067 6.85515 16.7842 6.68271C16.7619 6.51052 16.5967 6.36941 16.4172 6.36941C16.2378 6.36941 16.1471 6.22279 16.216 6.04333C16.3603 5.66712 13.8637 1.80126 12.8459 0.824766C11.8609 -0.120143 11.2714 -0.240445 10.7588 0.398684ZM8.54316 15.7228C9.00634 15.7278 11.0623 17.8294 11.0623 18.2978C11.0623 18.4918 11.1819 18.6507 11.3278 18.6507C11.4736 18.6507 11.5235 18.7635 11.4383 18.9014C11.3531 19.0392 11.416 19.152 11.5782 19.152C11.7571 19.152 11.8258 19.3976 11.7528 19.7786C11.6869 20.1232 11.7348 20.4052 11.8591 20.4052C12.3053 20.4052 10.254 22.3727 9.47629 22.6908C9.03893 22.8695 8.52487 23.1687 8.33388 23.3557C8.09352 23.5913 7.90654 23.6156 7.72583 23.4349C7.54512 23.2542 7.36616 23.2562 7.14309 23.4414C6.83055 23.7009 5.05527 23.8192 4.29508 23.6312C3.74017 23.4938 3.27022 22.7597 3.44541 22.3035C3.52963 22.0845 3.41408 21.6241 3.18901 21.2804C2.81054 20.703 2.81054 20.6558 3.18851 20.6558C3.51208 20.6558 3.5592 20.512 3.41358 19.9666C3.31232 19.5876 3.24841 19.1365 3.27147 18.964C3.29453 18.7918 3.33689 18.3703 3.36571 18.0276C3.39879 17.6319 3.55494 17.4259 3.7938 17.4637C4.00058 17.4963 4.14144 17.382 4.1071 17.2095C4.07251 17.0374 4.21362 16.8963 4.4204 16.8963C4.62718 16.8963 4.79636 16.7083 4.79636 16.4784C4.79636 16.2489 4.86353 16.1278 4.94524 16.2097C5.0272 16.2917 5.45028 16.1403 5.88513 15.8731C6.44381 15.53 6.89722 15.436 7.42807 15.5531C7.84162 15.6441 8.3434 15.7205 8.54316 15.7228Z" fill="#F9F2E9"/>
</svg>
